# Blender 3.6.0
# www.blender.org
mtllib fire.mtl
o 立方体.002
v -0.243894 0.978780 -1.020738
v -0.243894 0.274180 -1.020738
v 0.460691 0.978780 -1.025146
v 0.460691 0.274180 -1.025146
v -0.232719 0.978780 0.765190
v -0.232719 0.274180 0.765190
v 0.471867 0.978780 0.760781
v 0.471867 0.274180 0.760781
v -0.123843 0.394234 -1.021489
v 0.340640 0.858727 -1.024395
v -0.123843 0.858727 -1.021489
v 0.340640 0.394234 -1.024395
v 1.017120 0.065940 1.901418
v 1.017120 1.846748 1.901418
v -0.763654 0.065940 1.912562
v -0.763654 1.846748 1.912562
v 1.005976 0.065940 0.120645
v 1.005976 1.846748 0.120645
v -0.774797 0.065940 0.131788
v -0.774797 1.846748 0.131788
v 0.344876 0.394234 -0.347569
v 0.344876 0.858727 -0.347569
v -0.119608 0.394234 -0.344662
v -0.119608 0.858727 -0.344662
v -0.123843 0.394234 -1.021489
v 0.340640 0.858727 -1.024395
v -0.123843 0.858727 -1.021489
v 0.340640 0.394234 -1.024395
v 0.525268 0.211055 -0.793343
v 0.525268 1.041905 -0.793343
v -0.305565 0.211055 -0.788144
v -0.305565 1.041905 -0.788144
v 0.524482 0.211055 -0.918983
v 0.524482 1.041905 -0.918983
v -0.306352 0.211055 -0.913784
v -0.306352 1.041905 -0.913784
v 0.527825 0.211055 -0.384734
v 0.527825 1.041905 -0.384734
v -0.303008 0.211055 -0.379535
v -0.303008 1.041905 -0.379535
v 0.527039 0.211055 -0.510374
v 0.527039 1.041905 -0.510374
v -0.303795 0.211055 -0.505175
v -0.303795 1.041905 -0.505175
v -0.148139 1.267514 0.387804
v -0.148139 1.700130 0.387804
v -0.580747 1.267514 0.390511
v -0.580747 1.700130 0.390511
v -0.150846 1.267514 -0.044804
v -0.150846 1.700130 -0.044804
v -0.583454 1.267514 -0.042096
v -0.583454 1.700130 -0.042096
v 0.789795 1.267514 0.381935
v 0.789795 1.700130 0.381935
v 0.357187 1.267514 0.384642
v 0.357187 1.700130 0.384642
v 0.787087 1.267514 -0.050673
v 0.787087 1.700130 -0.050673
v 0.354480 1.267514 -0.047966
v 0.354480 1.700130 -0.047966
vn -0.0000 1.0000 -0.0000
vn 1.0000 -0.0000 -0.0063
vn 0.0063 -0.0000 1.0000
vn -0.0000 -1.0000 -0.0000
vn -0.0063 -0.0000 -1.0000
vn -1.0000 -0.0000 0.0063
vt 0.719830 0.601814
vt 0.600944 0.300472
vt 0.719830 0.300472
vt 0.719830 0.601814
vt 0.838716 0.300472
vt 0.838716 0.601814
vt 0.881114 0.300472
vt 1.000000 0.419358
vt 0.881114 0.419358
vt 0.419358 0.902286
vt 0.300472 0.600944
vt 0.419358 0.600944
vt 0.881114 0.419358
vt 1.000000 0.419358
vt 0.901371 0.439614
vt 1.000000 0.538244
vt 0.901371 0.517987
vt 0.979744 0.517987
vt 0.419358 0.902286
vt 0.538244 0.600944
vt 0.538244 0.902286
vt 0.000000 0.000000
vt 0.300472 0.300472
vt 0.000000 0.300472
vt 0.300472 0.600944
vt 0.000000 0.600944
vt 0.300472 0.000000
vt 0.600944 0.300472
vt 0.600944 0.600944
vt 0.000000 0.901417
vt 0.300472 0.901417
vt 0.901417 0.000000
vt 0.901417 0.300472
vt 0.600944 0.000000
vt 0.679317 0.960563
vt 0.600944 0.882190
vt 0.679317 0.882190
vt 0.881320 0.601814
vt 0.959693 0.716016
vt 0.881320 0.716016
vt 0.959693 0.830218
vt 0.881320 0.716016
vt 0.959693 0.716016
vt 0.881320 0.944420
vt 0.959693 0.944420
vt 0.979790 -0.000000
vt 0.901417 0.114202
vt 0.901417 -0.000000
vt 0.600944 0.601814
vt 0.741132 0.742002
vt 0.600944 0.742002
vt 0.838716 0.300472
vt 0.859915 0.440660
vt 0.838716 0.440660
vt 0.741132 0.601814
vt 0.881320 0.742002
vt 0.741132 0.742002
vt 0.838716 0.440660
vt 0.859915 0.580848
vt 0.838716 0.580848
vt 0.538244 0.881320
vt 0.559443 0.741132
vt 0.559443 0.881320
vt 0.559443 0.881320
vt 0.580642 0.741132
vt 0.580642 0.881320
vt 0.741132 0.882190
vt 0.600944 0.882190
vt 0.538244 0.600944
vt 0.559443 0.741132
vt 0.538244 0.741132
vt 0.881320 0.882190
vt 0.741132 0.882190
vt 0.559443 0.600944
vt 0.580642 0.741132
vt 0.559443 0.741132
vt 0.859915 0.440660
vt 0.881114 0.300472
vt 0.881114 0.440660
vt 0.859915 0.580848
vt 0.881114 0.440660
vt 0.881114 0.580848
vt 0.145989 0.901417
vt 0.218983 0.974411
vt 0.145989 0.974411
vt 0.679317 0.955184
vt 0.752312 0.882190
vt 0.752312 0.955184
vt 0.901417 0.187196
vt 0.974411 0.260191
vt 0.901417 0.260191
vt -0.000000 0.974411
vt 0.072994 0.901417
vt 0.072994 0.974411
vt 0.825306 0.955184
vt 0.752312 0.882190
vt 0.825306 0.882190
vt 0.974411 0.187196
vt 0.901417 0.114202
vt 0.974411 0.114202
vt 0.218983 0.901417
vt 0.291978 0.974411
vt 0.218983 0.974411
vt 0.300472 0.902286
vt 0.373467 0.975281
vt 0.300472 0.975281
vt 0.373467 0.902286
vt 0.446461 0.975281
vt 0.373467 0.975281
vt 0.446461 0.902286
vt 0.519456 0.975281
vt 0.446461 0.975281
vt 0.592450 0.902286
vt 0.592450 0.975281
vt 0.145989 0.974411
vt 0.072994 0.901417
vt 0.145989 0.901417
vt 0.600944 0.601814
vt 0.719830 0.300472
vt 1.000000 0.300472
vt 0.300472 0.902286
vt 0.881114 0.538244
vt 0.979744 0.439614
vt 0.419358 0.600944
vt 0.600944 0.960563
vt 0.959693 0.601814
vt 0.881320 0.830218
vt 0.881320 0.830218
vt 0.979790 0.114202
vt 0.741132 0.601814
vt 0.859915 0.300472
vt 0.881320 0.601814
vt 0.859915 0.440660
vt 0.559443 0.600944
vt 0.580642 0.600944
vt 0.859915 0.300472
vt 0.859915 0.440660
vt 0.218983 0.901417
vt 0.974411 0.187196
vt -0.000000 0.901417
vt 0.752312 0.955184
vt 0.901417 0.187196
vt 0.291978 0.901417
vt 0.373467 0.902286
vt 0.446461 0.902286
vt 0.519456 0.902286
vt 0.519456 0.902286
vt 0.072994 0.974411
s 0
usemtl Material
f 5/1/1 3/2/1 1/3/1
f 3/4/2 8/5/2 4/6/2
f 7/7/3 6/8/3 8/9/3
f 2/10/4 8/11/4 6/12/4
f 1/13/5 3/14/5 11/15/5
f 4/16/5 9/17/5 12/18/5
f 5/19/6 2/20/6 6/21/6
f 14/22/3 15/23/3 13/24/3
f 16/24/6 19/25/6 15/26/6
f 20/27/5 17/28/5 19/23/5
f 18/23/2 13/29/2 17/25/2
f 19/30/4 13/25/4 15/31/4
f 16/28/1 18/32/1 20/33/1
f 14/22/3 16/27/3 15/23/3
f 16/24/6 20/23/6 19/25/6
f 20/27/5 18/34/5 17/28/5
f 18/23/2 14/28/2 13/29/2
f 19/30/4 17/26/4 13/25/4
f 16/28/1 14/34/1 18/32/1
f 23/35/5 22/36/5 21/37/5
f 24/38/2 25/39/2 27/40/2
f 21/41/6 26/42/6 28/43/6
f 21/44/1 25/41/1 23/45/1
f 24/46/4 26/47/4 22/48/4
f 30/49/3 31/50/3 29/51/3
f 32/52/6 35/53/6 31/54/6
f 36/55/5 33/56/5 35/57/5
f 34/58/2 29/59/2 33/60/2
f 35/61/4 29/62/4 31/63/4
f 32/64/1 34/65/1 36/66/1
f 38/51/3 39/67/3 37/68/3
f 40/69/6 43/70/6 39/71/6
f 44/57/5 41/72/5 43/73/5
f 42/74/2 37/75/2 41/76/2
f 43/77/4 37/78/4 39/79/4
f 40/80/1 42/81/1 44/82/1
f 46/83/3 47/84/3 45/85/3
f 48/86/6 51/87/6 47/88/6
f 52/89/5 49/90/5 51/91/5
f 50/92/2 45/93/2 49/94/2
f 51/95/4 45/96/4 47/97/4
f 48/98/1 50/99/1 52/100/1
f 54/101/3 55/102/3 53/103/3
f 56/104/6 59/105/6 55/106/6
f 60/107/5 57/108/5 59/109/5
f 58/110/2 53/111/2 57/112/2
f 59/111/4 53/113/4 55/114/4
f 56/115/1 58/116/1 60/117/1
f 5/1/1 7/118/1 3/2/1
f 3/4/2 7/119/2 8/5/2
f 7/7/3 5/120/3 6/8/3
f 2/10/4 4/121/4 8/11/4
f 9/17/5 2/122/5 1/13/5
f 3/14/5 4/16/5 12/18/5
f 3/14/5 12/18/5 10/123/5
f 11/15/5 9/17/5 1/13/5
f 3/14/5 10/123/5 11/15/5
f 4/16/5 2/122/5 9/17/5
f 5/19/6 1/124/6 2/20/6
f 23/35/5 24/125/5 22/36/5
f 24/38/2 23/126/2 25/39/2
f 21/41/6 22/127/6 26/42/6
f 21/44/1 28/128/1 25/41/1
f 24/46/4 27/129/4 26/47/4
f 30/49/3 32/130/3 31/50/3
f 32/52/6 36/131/6 35/53/6
f 36/55/5 34/132/5 33/56/5
f 34/58/2 30/133/2 29/59/2
f 35/61/4 33/71/4 29/62/4
f 32/64/1 30/70/1 34/65/1
f 38/51/3 40/50/3 39/67/3
f 40/69/6 44/134/6 43/70/6
f 44/57/5 42/56/5 41/72/5
f 42/74/2 38/135/2 37/75/2
f 43/77/4 41/136/4 37/78/4
f 40/80/1 38/137/1 42/81/1
f 46/83/3 48/138/3 47/84/3
f 48/86/6 52/37/6 51/87/6
f 52/89/5 50/139/5 49/90/5
f 50/92/2 46/140/2 45/93/2
f 51/95/4 49/141/4 45/96/4
f 48/98/1 46/142/1 50/99/1
f 54/101/3 56/143/3 55/102/3
f 56/104/6 60/144/6 59/105/6
f 60/107/5 58/145/5 57/108/5
f 58/110/2 54/146/2 53/111/2
f 59/111/4 57/147/4 53/113/4
f 56/115/1 54/148/1 58/116/1
