# Blender 3.6.0
# www.blender.org
mtllib mortar.mtl
o 立方体.004
v 2.008521 1.525037 1.076605
v 2.008521 2.521542 0.080100
v 1.639323 1.525037 1.076605
v 1.639323 2.521542 0.080100
v 2.008521 0.528532 0.080100
v 2.008521 1.525037 -0.916404
v 1.639323 0.528532 0.080100
v 1.639323 1.525037 -0.916404
v 1.707278 1.525037 2.277958
v 1.707278 3.722895 0.080100
v 0.892987 1.525037 2.277958
v 0.892987 3.722895 0.080100
v 1.707278 -0.672821 0.080100
v 1.707278 1.525037 -2.117757
v 0.892987 -0.672821 0.080100
v 0.892987 1.525037 -2.117757
v 0.943288 4.880701 3.609921
v 0.943288 6.021251 1.957104
v -1.064859 4.880701 3.609921
v -1.064859 6.021251 1.957105
v 1.070285 3.155755 2.573895
v 1.070285 4.440564 0.712029
v -1.191856 3.155755 2.573896
v -1.191856 4.440564 0.712029
v 0.651396 4.433661 2.946790
v 0.651396 5.242645 1.774461
v -0.772966 4.433661 2.946790
v -0.772967 5.242645 1.774461
v 0.838384 5.302338 3.773420
v 0.838384 6.323725 2.293288
v -0.959954 5.302338 3.773420
v -0.959954 6.323725 2.293289
v 1.071725 0.319017 0.618112
v 1.071725 1.605462 -1.246126
v -1.193296 0.319017 0.618112
v -1.193296 1.605462 -1.246126
v 0.651396 5.080197 3.392941
v -0.772966 5.889180 2.220612
v 0.651396 5.889180 2.220612
v -0.772966 5.080197 3.392941
v 0.651396 5.408539 3.619519
v -0.772966 6.217523 2.447190
v 0.651396 6.217523 2.447190
v -0.772966 5.408539 3.619519
v 1.370406 -0.806535 1.414794
v 1.370406 2.043482 1.414793
v -1.479610 -0.806535 1.414794
v -1.479610 2.043482 1.414793
v 1.370406 -0.806534 -1.435223
v 1.370406 2.043481 -1.435223
v -1.479610 -0.806534 -1.435222
v -1.479610 2.043481 -1.435222
v 0.798350 0.430793 1.623257
v 0.798350 0.998886 1.623257
v 0.230256 0.430793 1.623257
v 0.230256 0.998886 1.623257
v 0.798350 0.430792 1.055163
v 0.798350 0.998886 1.055163
v 0.230256 0.430792 1.055163
v 0.230256 0.998886 1.055163
v -0.335225 0.430793 1.623257
v -0.335225 0.998886 1.623257
v -0.903318 0.430793 1.623257
v -0.903318 0.998886 1.623257
v -0.335225 0.430792 1.055163
v -0.335225 0.998886 1.055163
v -0.903318 0.430792 1.055163
v -0.903318 0.998886 1.055163
v -1.706156 1.525037 1.076605
v -1.706156 2.521542 0.080100
v -2.075354 1.525037 1.076605
v -2.075354 2.521542 0.080100
v -1.706156 0.528532 0.080100
v -1.706156 1.525037 -0.916404
v -2.075354 0.528532 0.080100
v -2.075354 1.525037 -0.916404
v -1.009422 1.525037 2.277958
v -1.009422 3.722895 0.080100
v -1.823712 1.525037 2.277958
v -1.823712 3.722895 0.080100
v -1.009422 -0.672821 0.080100
v -1.009422 1.525037 -2.117757
v -1.823712 -0.672821 0.080100
v -1.823712 1.525037 -2.117757
vn -0.0000 0.7071 0.7071
vn -1.0000 -0.0000 -0.0000
vn -0.0000 -0.7071 -0.7071
vn 1.0000 -0.0000 -0.0000
vn -0.0000 -0.7071 0.7071
vn -0.0000 0.7071 -0.7071
vn -0.0000 0.8231 0.5680
vn -0.9980 0.0519 0.0358
vn -0.0000 -0.8231 -0.5680
vn 0.9980 0.0519 0.0358
vn -0.0000 -0.5149 0.8573
vn -0.0000 0.6188 -0.7856
vn -0.9992 0.0326 0.0225
vn 0.9992 0.0326 0.0225
vn -0.0000 -0.5350 0.8449
vn -0.0000 0.6001 -0.7999
vn -0.0000 0.5680 -0.8231
vn -0.0000 -0.5680 0.8231
vn -0.0000 -0.0000 1.0000
vn -0.0000 -0.0000 -1.0000
vn -0.0000 -1.0000 -0.0000
vn -0.0000 1.0000 -0.0000
vt 0.928171 0.286065
vt 0.986879 0.227179
vt 0.986879 0.286065
vt 0.875641 0.491151
vt 0.934484 0.550020
vt 0.875641 0.550035
vt 0.927891 0.874504
vt 0.986669 0.815619
vt 0.986669 0.874504
vt 0.117693 0.904730
vt 0.176544 0.963627
vt 0.117693 0.963614
vt 0.990989 0.491136
vt 0.934484 0.550021
vt 0.934484 0.491136
vt 0.932261 0.777200
vt 0.990968 0.718315
vt 0.990968 0.777200
vt 0.798407 0.945494
vt 0.927891 0.815619
vt 0.927891 0.945494
vt 0.374625 0.722555
vt 0.504407 0.852393
vt 0.374625 0.852427
vt -0.000000 0.904730
vt 0.129639 0.774854
vt 0.129639 0.904730
vt 0.634189 0.722521
vt 0.763987 0.852422
vt 0.634189 0.852393
vt 0.982229 0.361260
vt 0.857604 0.491136
vt 0.857604 0.361260
vt 0.847757 0.129876
vt 0.977239 0.000000
vt 0.977239 0.129876
vt 0.000000 0.774854
vt 0.083458 0.454564
vt 0.083458 0.774854
vt 0.847634 0.723621
vt 0.932261 0.812837
vt 0.847634 0.807530
vt 0.620568 0.722061
vt 0.714399 0.361260
vt 0.714399 0.722061
vt 0.847757 0.129876
vt 0.932323 0.219091
vt 0.847757 0.224397
vt 0.798532 0.000000
vt 0.714525 0.340545
vt 0.714525 0.020255
vt 0.714399 0.701806
vt 0.798407 0.361260
vt 0.798407 0.722061
vt 0.267326 0.732123
vt 0.195002 0.720149
vt 0.252285 0.705222
vt 0.375000 0.000000
vt 0.599006 0.025995
vt 0.400995 0.025995
vt 0.185252 0.454564
vt 0.100360 0.702077
vt 0.110110 0.454564
vt 0.620575 0.361260
vt 0.714525 0.000000
vt 0.714525 0.361260
vt 0.361968 0.701978
vt 0.277076 0.454564
vt 0.352218 0.454564
vt 0.620568 0.361260
vt 0.374625 0.685304
vt 0.374625 0.398477
vt 0.374625 0.324043
vt 0.620575 -0.000000
vt 0.620575 0.361260
vt 0.088631 0.761593
vt 0.121434 0.702077
vt 0.121434 0.761593
vt 0.138093 0.702077
vt 0.138093 0.761593
vt 0.857604 0.588440
vt 0.798407 0.361260
vt 0.857604 0.361260
vt 0.763987 0.813129
vt 0.796786 0.872645
vt 0.763987 0.872645
vt 0.625000 0.887874
vt 0.375000 0.957893
vt 0.625000 0.957893
vt 0.847634 0.815619
vt 0.814987 0.588440
vt 0.847634 0.588440
vt 0.814987 0.815619
vt 0.798407 0.588440
vt 0.847757 0.227179
vt 0.815111 0.000000
vt 0.847757 0.000000
vt 0.798532 0.227179
vt 0.798532 0.000000
vt 0.000000 0.454564
vt 0.104503 -0.000000
vt 0.104503 0.454564
vt 0.504407 0.971484
vt 0.623433 0.852510
vt 0.623433 0.971567
vt 0.104503 0.454564
vt 0.195002 -0.000000
vt 0.195002 0.454564
vt 0.195002 0.880938
vt 0.314038 0.999932
vt 0.195002 1.000000
vt 0.285490 0.454564
vt 0.374625 -0.000000
vt 0.374625 0.454564
vt 0.285490 -0.000000
vt 0.195002 0.454564
vt 0.195002 -0.000000
vt 0.341137 0.792586
vt 0.361968 0.701978
vt 0.361968 0.792586
vt 0.267326 0.725710
vt 0.291051 0.701994
vt 0.291051 0.725726
vt 0.156132 0.792685
vt 0.174171 0.702077
vt 0.174171 0.792685
vt 0.338504 0.701978
vt 0.314777 0.725724
vt 0.314777 0.701991
vt 0.341137 0.883194
vt 0.358905 0.792586
vt 0.358905 0.883194
vt 0.782024 0.722520
vt 0.763987 0.813129
vt 0.763987 0.722520
vt 0.174171 0.792685
vt 0.195002 0.702077
vt 0.195002 0.792685
vt 0.291051 0.725710
vt 0.314776 0.701994
vt 0.314776 0.725726
vt 0.138093 0.792685
vt 0.156132 0.702077
vt 0.156132 0.792685
vt 0.338504 0.725724
vt 0.314777 0.749470
vt 0.314777 0.725738
vt 0.156132 0.883293
vt 0.173899 0.792685
vt 0.173899 0.883293
vt 0.875641 0.491136
vt 0.857604 0.581744
vt 0.928171 0.344950
vt 0.986879 0.286065
vt 0.986879 0.344950
vt 0.000000 0.904745
vt 0.058843 0.963614
vt 0.000000 0.963629
vt 0.927891 0.933389
vt 0.986669 0.933389
vt 0.058843 0.904730
vt 0.117693 0.963627
vt 0.058843 0.963614
vt 0.984396 0.933389
vt 0.927891 0.992275
vt 0.927891 0.933389
vt 0.932324 0.188761
vt 0.991031 0.129876
vt 0.991031 0.188761
vt 0.847634 0.718315
vt 0.977118 0.588439
vt 0.977118 0.718315
vt 0.504407 0.722555
vt 0.634189 0.852393
vt 0.504407 0.852427
vt 0.798532 0.357055
vt 0.928171 0.227179
vt 0.928171 0.357055
vt 0.195002 0.750968
vt 0.324800 0.880870
vt 0.195002 0.880841
vt 0.758814 0.852422
vt 0.634189 0.982297
vt 0.634189 0.852422
vt 0.374625 0.982303
vt 0.504107 0.852427
vt 0.504107 0.982303
vt 0.928171 0.227179
vt 0.934484 0.491136
vt 0.927891 0.815619
vt 0.176544 0.904743
vt 0.990989 0.550021
vt 0.932261 0.718315
vt 0.798407 0.815619
vt 0.504407 0.722521
vt -0.000000 0.774854
vt 0.763987 0.722549
vt 0.982229 0.491136
vt 0.847757 0.000000
vt -0.000000 0.454564
vt 0.620568 0.361260
vt 0.932323 0.135182
vt 0.798532 0.360801
vt 0.714399 0.381516
vt 0.195002 0.485384
vt 0.195002 0.454564
vt 0.400995 0.224005
vt 0.375000 0.250000
vt 0.625000 0.000000
vt 0.195002 0.702077
vt 0.620575 0.000000
vt 0.267326 0.701978
vt 0.620568 0.722520
vt 0.374625 0.037217
vt 0.088631 0.702077
vt 0.796786 0.813129
vt 0.375000 0.887874
vt 0.798407 0.815619
vt 0.815111 0.227179
vt 0.000000 -0.000000
vt 0.504407 0.852427
vt 0.104503 -0.000000
vt 0.314038 0.880870
vt 0.285490 -0.000000
vt 0.285490 0.454564
vt 0.341137 0.701978
vt 0.267326 0.701978
vt 0.156132 0.702077
vt 0.338504 0.725711
vt 0.341137 0.792586
vt 0.782024 0.813129
vt 0.174171 0.702077
vt 0.291051 0.701978
vt 0.138093 0.702077
vt 0.338504 0.749457
vt 0.156132 0.792685
vt 0.875641 0.581744
vt 0.928171 0.286065
vt 0.117693 0.904743
vt 0.984396 0.992275
vt 0.932324 0.129876
vt 0.847634 0.588439
vt 0.634189 0.722521
vt 0.798532 0.227179
vt 0.324800 0.750997
vt 0.758814 0.982297
vt 0.374625 0.852427
s 0
usemtl マテリアル.002
f 2/1/1 3/2/1 1/3/1
f 4/4/2 7/5/2 3/6/2
f 8/7/3 5/8/3 7/9/3
f 6/10/4 1/11/4 5/12/4
f 7/13/5 1/14/5 3/15/5
f 4/16/6 6/17/6 8/18/6
f 10/19/1 11/20/1 9/21/1
f 12/22/2 15/23/2 11/24/2
f 16/25/3 13/26/3 15/27/3
f 14/28/4 9/29/4 13/30/4
f 15/31/5 9/32/5 11/33/5
f 12/34/6 14/35/6 16/36/6
f 18/37/7 19/38/7 17/39/7
f 20/40/8 23/41/8 19/42/8
f 24/43/9 21/44/9 23/45/9
f 22/46/10 17/47/10 21/48/10
f 23/49/11 17/50/11 19/51/11
f 20/52/12 22/53/12 24/54/12
f 32/55/7 44/56/7 42/57/7
f 29/58/7 43/59/7 41/60/7
f 32/61/13 35/62/13 31/63/13
f 36/64/9 33/65/9 35/66/9
f 33/67/14 30/68/14 29/69/14
f 35/70/15 29/71/15 31/72/15
f 32/73/16 34/74/16 36/75/16
f 27/76/4 38/77/4 40/78/4
f 40/78/4 42/79/4 44/80/4
f 25/81/7 28/82/7 27/83/7
f 39/84/2 25/85/2 37/86/2
f 39/87/2 41/88/2 43/89/2
f 27/90/17 37/91/17 25/92/17
f 40/93/17 41/94/17 37/91/17
f 26/95/18 38/96/18 28/97/18
f 38/96/18 43/98/18 42/99/18
f 46/100/19 47/101/19 45/102/19
f 48/103/2 51/104/2 47/105/2
f 52/106/20 49/107/20 51/108/20
f 49/109/4 46/110/4 45/111/4
f 51/112/21 45/113/21 47/114/21
f 48/115/22 50/116/22 52/117/22
f 54/118/19 55/119/19 53/120/19
f 56/121/2 59/122/2 55/123/2
f 60/124/20 57/125/20 59/126/20
f 58/127/4 53/128/4 57/129/4
f 59/130/21 53/131/21 55/132/21
f 56/133/22 58/134/22 60/135/22
f 62/136/19 63/137/19 61/138/19
f 64/139/2 67/140/2 63/141/2
f 68/142/20 65/143/20 67/144/20
f 66/145/4 61/146/4 65/147/4
f 67/148/21 61/149/21 63/150/21
f 64/151/22 66/152/22 68/32/22
f 70/153/1 71/154/1 69/155/1
f 72/156/2 75/157/2 71/158/2
f 76/159/3 73/9/3 75/160/3
f 74/161/4 69/162/4 73/163/4
f 75/164/5 69/165/5 71/166/5
f 72/167/6 74/168/6 76/169/6
f 78/170/1 79/171/1 77/172/1
f 80/173/2 83/174/2 79/175/2
f 84/176/3 81/177/3 83/178/3
f 82/179/4 77/180/4 81/181/4
f 83/182/5 77/183/5 79/184/5
f 80/185/6 82/186/6 84/187/6
f 2/1/1 4/188/1 3/2/1
f 4/4/2 8/189/2 7/5/2
f 8/7/3 6/190/3 5/8/3
f 6/10/4 2/191/4 1/11/4
f 7/13/5 5/192/5 1/14/5
f 4/16/6 2/193/6 6/17/6
f 10/19/1 12/194/1 11/20/1
f 12/22/2 16/195/2 15/23/2
f 16/25/3 14/196/3 13/26/3
f 14/28/4 10/197/4 9/29/4
f 15/31/5 13/198/5 9/32/5
f 12/34/6 10/199/6 14/35/6
f 18/37/7 20/200/7 19/38/7
f 20/40/8 24/193/8 23/41/8
f 24/43/9 22/201/9 21/44/9
f 22/46/10 18/202/10 17/47/10
f 23/49/11 21/203/11 17/50/11
f 20/52/12 18/204/12 22/53/12
f 42/57/7 43/205/7 30/206/7
f 32/55/7 31/179/7 44/56/7
f 42/57/7 30/206/7 32/55/7
f 41/60/7 44/207/7 31/208/7
f 29/58/7 30/209/7 43/59/7
f 41/60/7 31/208/7 29/58/7
f 32/61/13 36/210/13 35/62/13
f 36/64/9 34/211/9 33/65/9
f 33/67/14 34/212/14 30/68/14
f 35/70/15 33/213/15 29/71/15
f 32/73/16 30/214/16 34/74/16
f 27/76/4 28/215/4 38/77/4
f 40/78/4 38/77/4 42/79/4
f 25/81/7 26/94/7 28/82/7
f 39/84/2 26/216/2 25/85/2
f 39/87/2 37/217/2 41/88/2
f 27/90/17 40/93/17 37/91/17
f 40/93/17 44/218/17 41/94/17
f 26/95/18 39/219/18 38/96/18
f 38/96/18 39/219/18 43/98/18
f 46/100/19 48/220/19 47/101/19
f 48/103/2 52/221/2 51/104/2
f 52/106/20 50/222/20 49/107/20
f 49/109/4 50/223/4 46/110/4
f 51/112/21 49/224/21 45/113/21
f 48/115/22 46/225/22 50/116/22
f 54/118/19 56/226/19 55/119/19
f 56/121/2 60/227/2 59/122/2
f 60/124/20 58/228/20 57/125/20
f 58/127/4 54/229/4 53/128/4
f 59/130/21 57/230/21 53/131/21
f 56/133/22 54/231/22 58/134/22
f 62/136/19 64/232/19 63/137/19
f 64/139/2 68/233/2 67/140/2
f 68/142/20 66/234/20 65/143/20
f 66/145/4 62/235/4 61/146/4
f 67/148/21 65/236/21 61/149/21
f 64/151/22 62/237/22 66/152/22
f 70/153/1 72/238/1 71/154/1
f 72/156/2 76/161/2 75/157/2
f 76/159/3 74/7/3 73/9/3
f 74/161/4 70/239/4 69/162/4
f 75/164/5 73/240/5 69/165/5
f 72/167/6 70/241/6 74/168/6
f 78/170/1 80/242/1 79/171/1
f 80/173/2 84/243/2 83/174/2
f 84/176/3 82/244/3 81/177/3
f 82/179/4 78/245/4 77/180/4
f 83/182/5 81/246/5 77/183/5
f 80/185/6 78/247/6 82/186/6
